<svg viewBox="0 0 400 500" xmlns="http://www.w3.org/2000/svg">
  <defs>
    <linearGradient id="bgGrad" x1="0%" y1="0%" x2="100%" y2="100%">
      <stop offset="0%" style="stop-color:#ff69b4;stop-opacity:0.3" />
      <stop offset="100%" style="stop-color:#9370db;stop-opacity:0.3" />
    </linearGradient>
  </defs>
  <rect width="400" height="500" fill="url(#bgGrad)"/>
  <text x="30" y="50" font-size="40">💕</text>
  <text x="320" y="80" font-size="35">💖</text>
  <text x="50" y="450" font-size="38">💗</text>
  <text x="330" y="420" font-size="35">💝</text>
  <text x="180" y="40" font-size="32">💓</text>
  <ellipse cx="200" cy="200" rx="70" ry="85" fill="#4169E1" stroke="#1E40AF" stroke-width="2"/>
  <circle cx="200" cy="120" r="65" fill="#4169E1" stroke="#1E40AF" stroke-width="2"/>
  <ellipse cx="155" cy="65" rx="20" ry="35" fill="#4169E1" stroke="#1E40AF" stroke-width="2"/>
  <ellipse cx="245" cy="65" rx="20" ry="35" fill="#4169E1" stroke="#1E40AF" stroke-width="2"/>
  <ellipse cx="155" cy="70" rx="12" ry="20" fill="#6495ED"/>
  <ellipse cx="245" cy="70" rx="12" ry="20" fill="#6495ED"/>
  <circle cx="175" cy="105" r="18" fill="white" stroke="#1E40AF" stroke-width="1"/>
  <circle cx="225" cy="105" r="18" fill="white" stroke="#1E40AF" stroke-width="1"/>
  <circle cx="177" cy="108" r="10" fill="black"/>
  <circle cx="227" cy="108" r="10" fill="black"/>
  <circle cx="180" cy="103" r="4" fill="white"/>
  <circle cx="230" cy="103" r="4" fill="white"/>
  <ellipse cx="200" cy="130" rx="8" ry="10" fill="#FF1493" stroke="#1E40AF" stroke-width="1"/>
  <path d="M 190 145 Q 200 155 210 145" stroke="#1E40AF" stroke-width="2" fill="none" stroke-linecap="round"/>
  <ellipse cx="200" cy="152" rx="6" ry="8" fill="#FF69B4"/>
  <ellipse cx="130" cy="190" rx="25" ry="45" fill="#4169E1" stroke="#1E40AF" stroke-width="2" transform="rotate(-30 130 190)"/>
  <ellipse cx="270" cy="190" rx="25" ry="45" fill="#4169E1" stroke="#1E40AF" stroke-width="2" transform="rotate(30 270 190)"/>
  <circle cx="110" cy="220" r="18" fill="#4169E1" stroke="#1E40AF" stroke-width="2"/>
  <circle cx="290" cy="220" r="18" fill="#4169E1" stroke="#1E40AF" stroke-width="2"/>
  <circle cx="100" cy="205" r="6" fill="#4169E1" stroke="#1E40AF" stroke-width="1"/>
  <circle cx="105" cy="235" r="6" fill="#4169E1" stroke="#1E40AF" stroke-width="1"/>
  <circle cx="300" cy="205" r="6" fill="#4169E1" stroke="#1E40AF" stroke-width="1"/>
  <circle cx="295" cy="235" r="6" fill="#4169E1" stroke="#1E40AF" stroke-width="1"/>
  <ellipse cx="165" cy="280" rx="20" ry="35" fill="#4169E1" stroke="#1E40AF" stroke-width="2"/>
  <ellipse cx="235" cy="280" rx="20" ry="35" fill="#4169E1" stroke="#1E40AF" stroke-width="2"/>
  <ellipse cx="165" cy="320" rx="25" ry="20" fill="#4169E1" stroke="#1E40AF" stroke-width="2"/>
  <ellipse cx="235" cy="320" rx="25" ry="20" fill="#4169E1" stroke="#1E40AF" stroke-width="2"/>
  <circle cx="150" cy="330" r="6" fill="#4169E1" stroke="#1E40AF" stroke-width="1"/>
  <circle cx="180" cy="330" r="6" fill="#4169E1" stroke="#1E40AF" stroke-width="1"/>
  <circle cx="220" cy="330" r="6" fill="#4169E1" stroke="#1E40AF" stroke-width="1"/>
  <circle cx="250" cy="330" r="6" fill="#4169E1" stroke="#1E40AF" stroke-width="1"/>
  <path d="M 235 250 Q 280 240 290 200 Q 295 180 285 160" stroke="#4169E1" stroke-width="20" fill="none" stroke-linecap="round"/>
  <text x="185" y="225" font-size="60" text-anchor="middle">💖</text>
  <text x="80" y="150" font-size="28">💕</text>
  <text x="320" y="200" font-size="28">💗</text>
  <text x="120" y="380" font-size="25">💓</text>
  <text x="280" y="380" font-size="25">💝</text>
</svg>