<svg viewBox="0 0 400 500" xmlns="http://www.w3.org/2000/svg">
  <defs>
    <linearGradient id="bgGrad8" x1="0%" y1="0%" x2="100%" y2="100%">
      <stop offset="0%" style="stop-color:#ff1493;stop-opacity:0.18" />
      <stop offset="100%" style="stop-color:#9370db;stop-opacity:0.18" />
    </linearGradient>
  </defs>
  <rect width="400" height="500" fill="url(#bgGrad8)"/>
  <text x="20" y="90" font-size="50">💖</text>
  <text x="350" y="140" font-size="50">💕</text>
  <text x="25" y="475" font-size="48">💗</text>
  <text x="340" y="495" font-size="48">💓</text>
  <circle cx="200" cy="125" r="62" fill="#4169E1" stroke="#1E40AF" stroke-width="2"/>
  <ellipse cx="158" cy="72" rx="19" ry="33" fill="#4169E1" stroke="#1E40AF" stroke-width="2"/>
  <ellipse cx="242" cy="72" rx="19" ry="33" fill="#4169E1" stroke="#1E40AF" stroke-width="2"/>
  <circle cx="176" cy="113" r="17" fill="white"/>
  <circle cx="224" cy="113" r="17" fill="white"/>
  <circle cx="176" cy="113" r="9" fill="black"/>
  <circle cx="224" cy="113" r="9" fill="black"/>
  <circle cx="181" cy="108" r="4" fill="white"/>
  <circle cx="229" cy="108" r="4" fill="white"/>
  <path d="M 188 140 Q 200 153 212 140" stroke="#1E40AF" stroke-width="3" fill="none" stroke-linecap="round"/>
  <ellipse cx="200" cy="255" rx="67" ry="82" fill="#4169E1" stroke="#1E40AF" stroke-width="2"/>
  <ellipse cx="129" cy="245" rx="24" ry="46" fill="#4169E1" stroke="#1E40AF" stroke-width="2" transform="rotate(-32 129 245)"/>
  <ellipse cx="271" cy="245" rx="24" ry="46" fill="#4169E1" stroke="#1E40AF" stroke-width="2" transform="rotate(32 271 245)"/>
  <circle cx="106" cy="280" r="17" fill="#4169E1" stroke="#1E40AF" stroke-width="2"/>
  <circle cx="294" cy="280" r="17" fill="#4169E1" stroke="#1E40AF" stroke-width="2"/>
  <ellipse cx="162" cy="335" rx="19" ry="34" fill="#4169E1" stroke="#1E40AF" stroke-width="2"/>
  <ellipse cx="238" cy="335" rx="19" ry="34" fill="#4169E1" stroke="#1E40AF" stroke-width="2"/>
  <ellipse cx="162" cy="377" rx="24" ry="19" fill="#4169E1" stroke="#1E40AF" stroke-width="2"/>
  <ellipse cx="238" cy="377" rx="24" ry="19" fill="#4169E1" stroke="#1E40AF" stroke-width="2"/>
  <text x="185" y="285" font-size="70">💝</text>
  <text x="160" y="50" font-size="32">💕</text>
  <text x="240" y="50" font-size="32">💖</text>
  <text x="200" y="485" font-size="35" text-anchor="middle">💗</text>
</svg>