<svg viewBox="0 0 400 500" xmlns="http://www.w3.org/2000/svg">
  <defs>
    <linearGradient id="bgGrad9" x1="0%" y1="0%" x2="100%" y2="100%">
      <stop offset="0%" style="stop-color:#ff69b4;stop-opacity:0.22" />
      <stop offset="100%" style="stop-color:#ffb6d9;stop-opacity:0.22" />
    </linearGradient>
  </defs>
  <rect width="400" height="500" fill="url(#bgGrad9)"/>
  <text x="30" y="85" font-size="48">💕</text>
  <text x="330" y="125" font-size="48">💖</text>
  <text x="35" y="455" font-size="46">💓</text>
  <text x="310" y="480" font-size="46">💗</text>
  <circle cx="200" cy="120" r="63" fill="#4169E1" stroke="#1E40AF" stroke-width="2"/>
  <ellipse cx="157" cy="66" rx="19" ry="34" fill="#4169E1" stroke="#1E40AF" stroke-width="2"/>
  <ellipse cx="243" cy="66" rx="19" ry="34" fill="#4169E1" stroke="#1E40AF" stroke-width="2"/>
  <circle cx="176" cy="108" r="17" fill="white"/>
  <circle cx="224" cy="108" r="17" fill="white"/>
  <circle cx="176" cy="108" r="9" fill="black"/>
  <circle cx="224" cy="108" r="9" fill="black"/>
  <circle cx="181" cy="103" r="4" fill="white"/>
  <circle cx="229" cy="103" r="4" fill="white"/>
  <path d="M 188 135 Q 200 148 212 135" stroke="#1E40AF" stroke-width="3" fill="none" stroke-linecap="round"/>
  <ellipse cx="200" cy="260" rx="68" ry="83" fill="#4169E1" stroke="#1E40AF" stroke-width="2"/>
  <ellipse cx="128" cy="250" rx="24" ry="47" fill="#4169E1" stroke="#1E40AF" stroke-width="2" transform="rotate(-32 128 250)"/>
  <ellipse cx="272" cy="250" rx="24" ry="47" fill="#4169E1" stroke="#1E40AF" stroke-width="2" transform="rotate(32 272 250)"/>
  <circle cx="105" cy="285" r="17" fill="#4169E1" stroke="#1E40AF" stroke-width="2"/>
  <circle cx="295" cy="285" r="17" fill="#4169E1" stroke="#1E40AF" stroke-width="2"/>
  <ellipse cx="162" cy="340" rx="19" ry="35" fill="#4169E1" stroke="#1E40AF" stroke-width="2"/>
  <ellipse cx="238" cy="340" rx="19" ry="35" fill="#4169E1" stroke="#1E40AF" stroke-width="2"/>
  <ellipse cx="162" cy="382" rx="24" ry="19" fill="#4169E1" stroke="#1E40AF" stroke-width="2"/>
  <ellipse cx="238" cy="382" rx="24" ry="19" fill="#4169E1" stroke="#1E40AF" stroke-width="2"/>
  <text x="185" y="290" font-size="72">💖</text>
  <text x="145" y="45" font-size="30">💝</text>
  <text x="255" y="45" font-size="30">💓</text>
  <text x="200" y="490" font-size="36" text-anchor="middle">💕</text>
</svg>